<svg viewBox="0 0 376 512" fill="none" xmlns="http://www.w3.org/2000/svg">
  <path d="M0.4375 32.005V480.005C0.4375 497.603 14.8347 512 32.4325 512H343.558C361.161 512 375.563 497.598 375.563 479.995V117.855C375.563 108.03 371.66 98.6072 364.712 91.6591L283.904 10.8504C276.956 3.90325 267.533 0 257.707 0H32.4425C14.8398 0 0.4375 14.4023 0.4375 32.005V32.005Z" fill="var(--primary100)" />
  <path d="M85.7116 247.006H290.289C295.388 247.006 299.521 242.873 299.521 237.774V215.261C299.521 210.162 295.388 206.029 290.289 206.029H85.7116C80.6126 206.029 76.4795 210.162 76.4795 215.261V237.774C76.4795 242.873 80.6126 247.006 85.7116 247.006V247.006Z" fill="#EBEFF0" />
  <path d="M85.7116 310.971H290.289C295.388 310.971 299.521 306.838 299.521 301.739V279.226C299.521 274.127 295.388 269.994 290.289 269.994H85.7116C80.6126 269.994 76.4795 274.127 76.4795 279.226V301.739C76.4795 306.838 80.6126 310.971 85.7116 310.971V310.971Z" fill="#EBEFF0" />
  <path d="M85.7116 374.935H290.289C295.388 374.935 299.521 370.801 299.521 365.703V343.191C299.521 338.092 295.388 333.959 290.289 333.959H85.7116C80.6126 333.959 76.4795 338.092 76.4795 343.191V365.704C76.4795 370.801 80.6126 374.935 85.7116 374.935V374.935Z" fill="#EBEFF0" />
  <path d="M83.1636 438.899H186.723C190.415 438.899 193.407 435.907 193.407 432.215V404.607C193.407 400.916 190.415 397.923 186.723 397.923H83.1636C79.4722 397.923 76.4795 400.916 76.4795 404.607V432.215C76.4795 435.907 79.4722 438.899 83.1636 438.899V438.899Z" fill="#EBEFF0" />
  <path d="M283.902 10.8504C279.144 6.09177 273.223 2.76277 266.808 1.13641V105.466L375.562 214.221V117.854C375.562 108.029 371.659 98.6062 364.712 91.658L283.902 10.8504Z" fill="var(--primary100)" />
  <path d="M374.465 108.868C374.584 109.382 374.693 109.883 374.792 110.366H276.762C269.82 110.366 264.192 104.739 264.192 97.797V0.583252C264.958 0.719785 265.764 0.879409 266.594 1.06313C273.901 2.67944 280.564 6.43712 285.857 11.7288L363.817 89.6883C369.088 94.9599 372.79 101.605 374.465 108.868V108.868Z" fill="var(--primary100)" />
  <path d="M375.563 448.955V479.995C375.563 497.598 361.161 512 343.558 512H32.4325C14.8347 512 0.4375 497.602 0.4375 480.005V448.955H375.563Z" fill="var(--primary100)" />
</svg>